<svg aria-hidden="true" style="position: absolute; width: 0; height: 0; overflow: hidden;" version="1.1" xmlns="http://www.w3.org/2000/svg" xmlns:xlink="http://www.w3.org/1999/xlink">
<defs>
<symbol id="icon-hamburger" viewBox="0 0 17 14">
<title>Hamburger</title>
<path d="M16.5,0.69h-16v2.6h16zM16.5,5.89h-16v2.6h16zM0.5,11.08v2.6h16v-2.6z"></path>
</symbol>
<symbol id="icon-refresh" viewBox="0 0 17 17">
<title>Refresh</title>
<path d="M16.4,7.23h-2.5c0.1,0.42 0.15,0.84 0.15,1.28c0,0.75 -0.15,1.47 -0.44,2.16c-0.28,0.66 -0.68,1.25 -1.19,1.76c-0.51,0.51 -1.1,0.91 -1.76,1.19c-0.68,0.29 -1.41,0.43 -2.16,0.43c-0.75,0 -1.48,-0.15 -2.16,-0.43c-0.66,-0.28 -1.25,-0.68 -1.76,-1.19c-0.51,-0.51 -0.91,-1.1 -1.19,-1.76c-0.29,-0.68 -0.43,-1.41 -0.43,-2.16c0,-0.75 0.15,-1.47 0.43,-2.16c0.28,-0.66 0.68,-1.25 1.19,-1.76c0.51,-0.51 1.1,-0.91 1.76,-1.19c0.68,-0.29 1.41,-0.43 2.16,-0.43c0.75,0 1.48,0.15 2.16,0.43c0.29,0.12 0.57,0.27 0.83,0.44l-1.57,1.56h4.91v-4.9l-1.58,1.58c-1.33,-0.98 -2.97,-1.56 -4.75,-1.56c-4.42,0 -8,3.58 -8,7.99c0,4.41 3.58,7.99 8,7.99c4.42,0 8,-3.58 8,-7.99c0,-0.44 -0.04,-0.86 -0.1,-1.28z"></path>
</symbol>
<symbol id="icon-loop" viewBox="0 0 17 16">
<title>Loop</title>
<path d="M13.94,10.6h-9.97v-2.16l-3.47,3.42l3.47,3.42v-2.16h12.53v-0.59v-1.93v-4.31l-2.56,2.52zM3.06,4.97h9.97v2.16l3.47,-3.42l-3.47,-3.42v2.16h-12.53v6.83l2.56,-2.52z"></path>
</symbol>
<symbol id="icon-shuffle" viewBox="0 0 17 16">
<title>Shuffle</title>
<path d="M13.02,10.66h-2.32l-4.72,-8.11l-0.01,0v0h-5.47v2.54h4l4.72,8.11l0,0v0h3.79v2.17l3.47,-3.44l-3.47,-3.44zM13.03,5.09v2.17l3.47,-3.44l-3.47,-3.44v2.17h-4.44l1.48,2.54zM0.5,10.66v2.54h6.1l-1.48,-2.54z"></path>
</symbol>

<symbol id="icon-share" viewBox="0 0 13 13">
<title>Share</title>
<path d="M10.2,7.9c-0.65,0 -1.24,0.27 -1.66,0.71l-3.47,-1.73c0.02,-0.12 0.03,-0.25 0.03,-0.38c0,-0.13 -0.01,-0.25 -0.03,-0.37l3.47,-1.73c0.42,0.44 1.01,0.71 1.66,0.71c1.27,0 2.3,-1.03 2.3,-2.3c0,-1.27 -1.03,-2.3 -2.3,-2.3c-1.27,0 -2.3,1.03 -2.3,2.3c0,0.13 0.01,0.25 0.03,0.37l-3.47,1.73c-0.42,-0.44 -1.01,-0.71 -1.66,-0.71c-1.27,0 -2.3,1.03 -2.3,2.3c0,1.27 1.03,2.3 2.3,2.3c0.65,0 1.24,-0.27 1.66,-0.71l3.47,1.73c-0.02,0.13 -0.03,0.25 -0.03,0.37c0,1.27 1.03,2.3 2.3,2.3c1.27,0 2.3,-1.03 2.3,-2.3c0,-1.27 -1.03,-2.3 -2.3,-2.3z"></path>
</symbol>
<symbol id="icon-prev" viewBox="0 0 13 13">
<title>Previous</title>
<path d="M2.88,6.5l9.62,6v-12zM0.5,0.5v11.98h2.38v-5.98v-6z"></path>
</symbol>
<symbol id="icon-pause" viewBox="0 0 17 17">
<title>Pause</title>
<path d="M0.5,16.5h5.87v-16h-5.87zM10.63,0.5v16h5.87v-16z"></path>
</symbol>
<symbol id="icon-next" viewBox="0 0 13 13">
<title>Next</title>
<path d="M10.12,6.5l-9.62,-6v12zM12.5,12.5v-11.98h-2.38v5.98v6z"></path>
</symbol>
<symbol id="icon-favorite" viewBox="0 0 15 13">
<title>Favorite</title>
<path d="M14.5,4.8c-0.07,-2.1 -1.68,-3.8 -3.75,-3.8c-1.38,0 -2.59,0.76 -3.24,1.88c-0.65,-1.13 -1.86,-1.88 -3.24,-1.88c-2.07,0 -3.69,1.7 -3.75,3.8c-0.16,4.76 7,8.2 7,8.2c0,0 7.15,-3.43 7,-8.2z"></path>
</symbol>
<symbol id="icon-back" viewBox="0 0 16 13">
<title>Icon Back</title>
<path d="M0 6.12L6.13 0.99L6.13 3.43C10.91 3.76 14.85 7.3 16 12.01C14.07 9.95 11.38 8.68 8.41 8.68C7.63 8.68 6.87 8.69 6.13 8.81L6.13 11.25L0 6.12Z"></path>
</symbol>
</defs>
</svg>
